<?xml version="1.0" standalone="no"?>
<!DOCTYPE svg PUBLIC "-//W3C//DTD SVG 20010904//EN"
 "http://www.w3.org/TR/2001/REC-SVG-20010904/DTD/svg10.dtd">
<svg version="1.0" xmlns="http://www.w3.org/2000/svg"
 width="3248.000000pt" height="2294.000000pt" viewBox="0 0 3248.000000 2294.000000"
 preserveAspectRatio="xMidYMid meet">

<g transform="translate(0.000000,2294.000000) scale(0.100000,-0.100000)"
fill="#000000" stroke="none">
<path d="M15495 17243 c-332 -8 -714 -37 -1030 -78 -686 -91 -1226 -233 -1740
-458 -82 -36 -163 -68 -180 -72 -16 -4 -41 -10 -55 -15 -14 -4 -50 -13 -80
-20 -30 -7 -62 -18 -70 -26 -8 -7 -49 -30 -90 -51 -41 -21 -81 -44 -88 -50 -7
-7 -21 -13 -31 -13 -39 0 -108 -89 -238 -305 -72 -121 -161 -276 -198 -345
-37 -69 -107 -198 -156 -287 -49 -89 -89 -164 -89 -166 0 -2 -75 -139 -166
-303 -92 -164 -222 -398 -289 -519 -328 -590 -679 -1208 -745 -1312 -17 -27
-27 -28 -50 -8 -32 29 -328 84 -615 115 -160 17 -762 8 -873 -14 -330 -64
-502 -223 -502 -463 0 -171 78 -283 240 -344 146 -55 507 -98 968 -115 117 -4
182 -10 182 -17 0 -10 -47 -58 -230 -233 -217 -207 -285 -268 -402 -360 -233
-185 -463 -382 -544 -466 -106 -111 -234 -272 -278 -350 -134 -241 -194 -716
-182 -1448 10 -564 24 -781 71 -1055 59 -347 119 -454 389 -692 136 -120 466
-382 621 -494 190 -136 353 -316 468 -516 139 -240 174 -321 262 -602 57 -184
66 -225 155 -749 29 -171 47 -247 66 -290 15 -31 30 -59 33 -62 3 -3 15 -21
25 -40 22 -40 30 -48 146 -171 46 -49 90 -89 97 -89 7 0 13 -4 13 -9 0 -8 153
-81 171 -81 5 0 28 -8 52 -19 61 -27 95 -38 152 -49 28 -6 77 -16 110 -24 95
-21 813 -17 1070 6 110 10 204 22 210 27 5 5 25 9 45 9 20 0 40 4 45 8 6 4 28
14 50 21 76 24 161 69 230 121 31 23 137 132 171 175 43 55 58 110 94 335 40
257 38 241 55 430 35 392 75 1330 60 1409 -20 110 -101 184 -200 182 -97 -1
-170 -55 -201 -149 -24 -74 -14 -142 34 -250 70 -153 76 -181 74 -337 -2 -162
-18 -462 -33 -620 -11 -122 -68 -417 -98 -510 -43 -133 -72 -208 -91 -235 -11
-15 -20 -31 -20 -35 0 -13 -87 -106 -126 -135 -22 -16 -67 -43 -100 -61 -56
-30 -69 -32 -234 -45 -291 -22 -633 13 -807 82 -270 107 -473 301 -641 614
-102 190 -156 350 -207 612 -91 465 -137 636 -206 765 -124 229 -340 430 -859
798 -69 49 -150 109 -180 133 -86 69 -298 263 -376 344 -79 81 -93 113 -134
309 -39 191 -45 296 -43 744 3 593 16 906 43 1015 97 392 563 923 1090 1244
299 182 752 354 990 377 52 5 1264 23 2692 39 l2597 31 2593 -31 c1426 -16
2638 -34 2693 -40 110 -10 315 -67 518 -144 613 -234 1185 -716 1466 -1237 91
-168 117 -283 126 -545 32 -965 23 -1254 -50 -1541 -37 -146 -52 -168 -193
-300 -234 -219 -315 -285 -547 -448 -421 -297 -645 -504 -765 -706 -85 -144
-125 -278 -210 -707 -65 -327 -106 -463 -195 -647 -142 -293 -347 -520 -570
-632 -152 -76 -276 -106 -539 -127 -141 -12 -213 -13 -350 -5 l-171 11 -85 41
c-99 49 -183 125 -236 212 -45 76 -115 283 -148 442 -46 219 -68 447 -82 868
-8 216 -4 240 69 399 81 179 55 326 -68 386 -81 39 -178 26 -232 -32 -52 -55
-63 -101 -63 -273 0 -401 42 -1164 81 -1470 19 -150 70 -450 80 -475 10 -24
48 -83 79 -124 29 -38 105 -112 144 -141 56 -41 176 -105 197 -105 10 0 21 -4
24 -10 3 -5 17 -10 30 -10 13 0 26 -4 29 -9 3 -5 23 -11 43 -14 21 -3 65 -10
98 -16 195 -31 1061 -54 1180 -30 28 5 66 12 85 15 19 3 60 12 90 20 30 9 66
18 80 21 14 3 30 9 35 13 6 4 57 26 115 49 116 46 184 96 285 211 32 36 66 73
76 83 11 10 19 24 19 32 0 8 5 15 10 15 6 0 10 5 10 10 0 6 11 27 24 48 31 48
39 77 81 323 89 524 98 568 142 704 88 278 117 352 183 480 173 337 308 500
575 695 118 86 394 302 480 374 388 327 448 420 514 796 55 310 76 722 68
1330 -5 428 -12 529 -48 740 -47 274 -94 399 -205 547 -169 224 -290 340 -688
659 -183 146 -696 621 -696 643 0 5 80 11 178 15 708 27 1027 88 1136 216 66
79 93 190 75 314 -12 90 -48 153 -125 226 -86 80 -207 134 -374 167 -102 20
-708 30 -864 14 -272 -28 -561 -82 -614 -114 -29 -17 -36 -18 -47 -6 -20 22
-156 256 -359 619 -104 184 -216 385 -251 445 -35 61 -76 135 -93 165 -16 30
-142 258 -279 505 -137 248 -276 500 -308 560 -115 217 -240 443 -333 600 -93
157 -98 163 -261 323 -91 89 -184 172 -206 183 -22 11 -58 33 -80 49 -98 72
-175 119 -235 144 -36 15 -85 38 -110 51 -175 91 -491 156 -1135 235 -137 17
-329 42 -425 55 -392 55 -688 80 -1110 95 -266 9 -381 10 -655 3z m1030 -263
c412 -22 1045 -125 1387 -226 217 -64 454 -165 801 -341 200 -101 296 -189
598 -543 226 -264 336 -418 562 -780 468 -751 928 -1649 1014 -1979 14 -53 27
-139 30 -191 5 -88 3 -103 -25 -183 -16 -48 -45 -113 -63 -144 -68 -113 -229
-261 -355 -326 -27 -14 -229 -13 -2285 16 -1239 17 -2319 31 -2399 31 -80 0
-640 -8 -1245 -17 -1135 -17 -2562 -35 -3116 -39 l-316 -3 -85 57 c-111 74
-149 107 -220 196 -106 134 -165 294 -154 418 18 193 143 529 331 884 56 107
132 254 168 325 159 317 610 1074 795 1335 240 337 622 764 774 866 78 52 546
277 684 329 147 55 679 155 1144 214 670 86 1475 127 1975 101z m-6005 -3830
c0 -16 -4 -30 -10 -30 -11 0 -14 43 -3 53 11 12 13 8 13 -23z m10551 -16 c-9
-17 -10 -17 -11 -2 0 9 -3 25 -6 35 -6 17 -6 17 11 2 13 -13 15 -21 6 -35z"/>
</g>
</svg>
