<svg width="178" height="36" viewBox="0 0 178 36" fill="none" xmlns="http://www.w3.org/2000/svg">
<path d="M17.368 3.8H24.496V29H17.368V3.8ZM7.648 29H0.52V3.8H7.648V29ZM17.872 19.172H7.144V13.268H17.872V19.172ZM29.1999 29V9.488H36.0399V29H29.1999ZM32.6199 7.328C31.3719 7.328 30.3639 6.98 29.5959 6.284C28.8279 5.588 28.4439 4.724 28.4439 3.692C28.4439 2.66 28.8279 1.796 29.5959 1.1C30.3639 0.403999 31.3719 0.0559993 32.6199 0.0559993C33.8679 0.0559993 34.8759 0.391999 35.6439 1.064C36.4119 1.712 36.7959 2.552 36.7959 3.584C36.7959 4.664 36.4119 5.564 35.6439 6.284C34.8999 6.98 33.8919 7.328 32.6199 7.328ZM49.1971 29.324C46.7011 29.324 44.7571 28.712 43.3651 27.488C41.9731 26.24 41.2771 24.368 41.2771 21.872V5.132H48.1171V21.8C48.1171 22.496 48.3091 23.048 48.6931 23.456C49.0771 23.84 49.5691 24.032 50.1691 24.032C50.9851 24.032 51.6811 23.828 52.2571 23.42L53.9491 28.208C53.3731 28.592 52.6651 28.868 51.8251 29.036C50.9851 29.228 50.1091 29.324 49.1971 29.324ZM38.4331 15.32V10.208H52.5811V15.32H38.4331ZM65.9961 29.324C63.8361 29.324 61.9041 28.892 60.2001 28.028C58.5201 27.164 57.2001 25.976 56.2401 24.464C55.2801 22.928 54.8001 21.176 54.8001 19.208C54.8001 17.24 55.2801 15.5 56.2401 13.988C57.2001 12.476 58.5201 11.3 60.2001 10.46C61.9041 9.596 63.8361 9.164 65.9961 9.164C68.2041 9.164 70.1121 9.632 71.7201 10.568C73.3281 11.504 74.4681 12.824 75.1401 14.528L69.8481 17.228C69.3921 16.316 68.8281 15.656 68.1561 15.248C67.4841 14.816 66.7521 14.6 65.9601 14.6C65.1681 14.6 64.4481 14.78 63.8001 15.14C63.1521 15.5 62.6361 16.028 62.2521 16.724C61.8921 17.396 61.7121 18.224 61.7121 19.208C61.7121 20.216 61.8921 21.068 62.2521 21.764C62.6361 22.46 63.1521 22.988 63.8001 23.348C64.4481 23.708 65.1681 23.888 65.9601 23.888C66.7521 23.888 67.4841 23.684 68.1561 23.276C68.8281 22.844 69.3921 22.172 69.8481 21.26L75.1401 23.96C74.4681 25.664 73.3281 26.984 71.7201 27.92C70.1121 28.856 68.2041 29.324 65.9961 29.324ZM90.3532 9.164C91.8652 9.164 93.2332 9.476 94.4572 10.1C95.6812 10.7 96.6412 11.636 97.3372 12.908C98.0572 14.18 98.4172 15.824 98.4172 17.84V29H91.5772V18.956C91.5772 17.564 91.2892 16.556 90.7132 15.932C90.1612 15.284 89.3812 14.96 88.3732 14.96C87.6532 14.96 86.9932 15.128 86.3932 15.464C85.7932 15.776 85.3252 16.268 84.9892 16.94C84.6532 17.612 84.4852 18.488 84.4852 19.568V29H77.6452V2.288H84.4852V15.032L82.9012 13.412C83.6452 11.996 84.6652 10.94 85.9612 10.244C87.2572 9.524 88.7212 9.164 90.3532 9.164ZM119.884 3.8H127.012V29H119.884V3.8ZM110.164 29H103.036V3.8H110.164V29ZM120.388 19.172H109.66V13.268H120.388V19.172ZM141.508 29.324C139.372 29.324 137.476 28.892 135.82 28.028C134.164 27.164 132.856 25.976 131.896 24.464C130.96 22.928 130.492 21.176 130.492 19.208C130.492 17.24 130.96 15.5 131.896 13.988C132.856 12.476 134.164 11.3 135.82 10.46C137.476 9.596 139.372 9.164 141.508 9.164C143.644 9.164 145.54 9.596 147.196 10.46C148.876 11.3 150.184 12.476 151.12 13.988C152.056 15.5 152.524 17.24 152.524 19.208C152.524 21.176 152.056 22.928 151.12 24.464C150.184 25.976 148.876 27.164 147.196 28.028C145.54 28.892 143.644 29.324 141.508 29.324ZM141.508 23.888C142.3 23.888 142.996 23.708 143.596 23.348C144.22 22.988 144.712 22.46 145.072 21.764C145.432 21.044 145.612 20.192 145.612 19.208C145.612 18.224 145.432 17.396 145.072 16.724C144.712 16.028 144.22 15.5 143.596 15.14C142.996 14.78 142.3 14.6 141.508 14.6C140.74 14.6 140.044 14.78 139.42 15.14C138.82 15.5 138.328 16.028 137.944 16.724C137.584 17.396 137.404 18.224 137.404 19.208C137.404 20.192 137.584 21.044 137.944 21.764C138.328 22.46 138.82 22.988 139.42 23.348C140.044 23.708 140.74 23.888 141.508 23.888ZM167.968 29.324C166.312 29.324 164.896 28.964 163.72 28.244C162.544 27.5 161.644 26.396 161.02 24.932C160.42 23.444 160.12 21.548 160.12 19.244C160.12 16.916 160.408 15.02 160.984 13.556C161.56 12.068 162.424 10.964 163.576 10.244C164.752 9.524 166.216 9.164 167.968 9.164C169.744 9.164 171.352 9.584 172.792 10.424C174.256 11.24 175.408 12.404 176.248 13.916C177.112 15.404 177.544 17.18 177.544 19.244C177.544 21.308 177.112 23.096 176.248 24.608C175.408 26.12 174.256 27.284 172.792 28.1C171.352 28.916 169.744 29.324 167.968 29.324ZM155.692 35.984V9.488H162.208V12.8L162.172 19.244L162.532 25.724V35.984H155.692ZM166.528 23.888C167.296 23.888 167.98 23.708 168.58 23.348C169.204 22.988 169.696 22.46 170.056 21.764C170.44 21.068 170.632 20.228 170.632 19.244C170.632 18.26 170.44 17.42 170.056 16.724C169.696 16.028 169.204 15.5 168.58 15.14C167.98 14.78 167.296 14.6 166.528 14.6C165.76 14.6 165.064 14.78 164.44 15.14C163.84 15.5 163.348 16.028 162.964 16.724C162.604 17.42 162.424 18.26 162.424 19.244C162.424 20.228 162.604 21.068 162.964 21.764C163.348 22.46 163.84 22.988 164.44 23.348C165.064 23.708 165.76 23.888 166.528 23.888Z" fill="#FBFBFB"/>
</svg>
