<svg width="29" height="30" viewBox="0 0 29 30" fill="none" xmlns="http://www.w3.org/2000/svg">
<path d="M18.5 28.7076V17.0409C18.5 16.6541 18.3464 16.2832 18.0729 16.0097C17.7994 15.7362 17.4284 15.5826 17.0417 15.5826H11.2083C10.8216 15.5826 10.4506 15.7362 10.1771 16.0097C9.90365 16.2832 9.75 16.6541 9.75 17.0409V28.7076M1 12.6659C0.999898 12.2416 1.09236 11.8224 1.27094 11.4376C1.44952 11.0527 1.70991 10.7114 2.03396 10.4376L12.2423 1.68903C12.7687 1.24411 13.4357 1 14.125 1C14.8143 1 15.4813 1.24411 16.0077 1.68903L26.216 10.4376C26.5401 10.7114 26.8005 11.0527 26.9791 11.4376C27.1576 11.8224 27.2501 12.2416 27.25 12.6659V25.7909C27.25 26.5645 26.9427 27.3063 26.3957 27.8533C25.8487 28.4003 25.1069 28.7076 24.3333 28.7076H3.91667C3.14312 28.7076 2.40125 28.4003 1.85427 27.8533C1.30729 27.3063 1 26.5645 1 25.7909V12.6659Z" stroke="#FBFBFB" stroke-width="2" stroke-linecap="round" stroke-linejoin="round"/>
</svg>
