<svg width="18" height="18" viewBox="0 0 18 18" fill="none" xmlns="http://www.w3.org/2000/svg">
<path d="M15 7.50001C15 11.2448 10.8458 15.1448 9.45076 16.3493C9.3208 16.447 9.16261 16.4998 9.00001 16.4998C8.83741 16.4998 8.67921 16.447 8.54926 16.3493C7.15425 15.1448 3 11.2448 3 7.50001C3 5.90871 3.63214 4.38258 4.75736 3.25736C5.88258 2.13214 7.40871 1.5 9.00001 1.5C10.5913 1.5 12.1174 2.13214 13.2427 3.25736C14.3679 4.38258 15 5.90871 15 7.50001Z" stroke="#121212" stroke-width="2" stroke-linecap="round" stroke-linejoin="round"/>
<path d="M9.00001 9.75001C10.2426 9.75001 11.25 8.74265 11.25 7.50001C11.25 6.25736 10.2426 5.25 9.00001 5.25C7.75736 5.25 6.75 6.25736 6.75 7.50001C6.75 8.74265 7.75736 9.75001 9.00001 9.75001Z" stroke="#121212" stroke-width="2" stroke-linecap="round" stroke-linejoin="round"/>
</svg>
