<svg width="27" height="30" viewBox="0 0 27 30" fill="none" xmlns="http://www.w3.org/2000/svg">
<path d="M11.0936 27.5003C11.3375 27.9225 11.6881 28.2732 12.1104 28.5169C12.5327 28.7607 13.0117 28.8891 13.4992 28.8891C13.9868 28.8891 14.4658 28.7607 14.8881 28.5169C15.3104 28.2732 15.661 27.9225 15.9048 27.5003M1.36288 19.6196C1.18144 19.8184 1.0617 20.0657 1.01823 20.3314C0.974758 20.5971 1.00943 20.8696 1.11802 21.116C1.22662 21.3623 1.40446 21.5718 1.62991 21.7189C1.85536 21.866 2.1187 21.9444 2.3879 21.9446H24.6106C24.8798 21.9447 25.1432 21.8666 25.3687 21.7197C25.5943 21.5729 25.7724 21.3637 25.8813 21.1175C25.9902 20.8714 26.0252 20.5989 25.9821 20.3332C25.9389 20.0675 25.8195 19.82 25.6384 19.6209C23.7911 17.7167 21.8327 15.6931 21.8327 9.44435C21.8327 7.23416 20.9548 5.1145 19.3919 3.55167C17.8291 1.98883 15.7094 1.11084 13.4992 1.11084C11.2891 1.11084 9.1694 1.98883 7.60657 3.55167C6.04373 5.1145 5.16574 7.23416 5.16574 9.44435C5.16574 15.6931 3.20598 17.7167 1.36288 19.6196Z" stroke="#FBFBFB" stroke-width="2" stroke-linecap="round" stroke-linejoin="round"/>
</svg>
